<svg width="21" height="21" viewBox="0 0 21 21" fill="none" xmlns="http://www.w3.org/2000/svg">
<path d="M2.16667 20.5C1.72222 20.5 1.33333 20.3333 1 20C0.666667 19.6667 0.5 19.2778 0.5 18.8333V2.16667C0.5 1.72222 0.666667 1.33333 1 1C1.33333 0.666667 1.72222 0.5 2.16667 0.5H9.91667V2.16667H2.16667V18.8333H18.8333V11.0833H20.5V18.8333C20.5 19.2778 20.3333 19.6667 20 20C19.6667 20.3333 19.2778 20.5 18.8333 20.5H2.16667ZM7.77778 14.4167L6.61111 13.2222L17.6667 2.16667H11.5833V0.5H20.5V9.41667H18.8333V3.36111L7.77778 14.4167Z" fill="#0B0C0C"/>
</svg>
