<svg width="21" height="20" viewBox="0 0 21 20" fill="none" xmlns="http://www.w3.org/2000/svg">
<path d="M2.14164 20C1.6972 20 1.30831 19.8333 0.974976 19.5C0.641642 19.1667 0.474976 18.7778 0.474976 18.3333V1.66667C0.474976 1.22222 0.641642 0.833333 0.974976 0.5C1.30831 0.166667 1.6972 0 2.14164 0H9.89164V1.66667H2.14164V18.3333H18.8083V10.5833H20.475V18.3333C20.475 18.7778 20.3083 19.1667 19.975 19.5C19.6416 19.8333 19.2528 20 18.8083 20H2.14164ZM7.75275 13.9167L6.58609 12.7222L17.6416 1.66667H11.5583V0H20.475V8.91667H18.8083V2.86111L7.75275 13.9167Z" fill="#1D70B8"/>
</svg>
