<svg width="21" height="20" viewBox="0 0 21 20" fill="none" xmlns="http://www.w3.org/2000/svg">
<path d="M4.9773 20.0003H0.830726V6.64701H4.9773V20.0003ZM2.90151 4.82552C1.57575 4.82552 0.5 3.72691 0.5 2.40115C0.5 1.07539 1.57504 -0.000366211 2.90151 -0.000366211C4.22799 -0.000366211 5.30303 1.07467 5.30303 2.40115C5.30303 3.72691 4.22728 4.82552 2.90151 4.82552ZM20.4964 20.0003H16.3591V13.5001C16.3591 11.9508 16.3277 9.96428 14.2033 9.96428C12.0476 9.96428 11.7168 11.6472 11.7168 13.3887V20.0003H7.57454V6.64701H11.5511V8.46851H11.609C12.1626 7.41918 13.5148 6.312 15.532 6.312C19.7285 6.312 20.5 9.07567 20.5 12.6651V20.0003H20.4964Z" fill="white"/>
</svg>
