<svg width="21" height="18" viewBox="0 0 21 18" fill="none" xmlns="http://www.w3.org/2000/svg">
<path d="M20.4619 2.8087C19.7262 3.1312 18.9388 3.35308 18.1088 3.4537C18.9556 2.94558 19.6031 2.14183 19.9119 1.18433C19.1175 1.64683 18.2388 1.98183 17.3044 2.1712C16.5594 1.3737 15.4944 0.871826 14.3125 0.871826C12.0469 0.871826 10.2106 2.70745 10.2106 4.96995C10.2106 5.29558 10.25 5.60808 10.3181 5.90433C6.91 5.74495 3.88875 4.10745 1.86813 1.6337C1.51313 2.2362 1.31125 2.9362 1.31125 3.69808C1.31125 5.1237 2.03687 6.3737 3.13375 7.1087C2.46312 7.08933 1.83187 6.9037 1.27875 6.59808V6.64745C1.27875 8.63558 2.69125 10.2931 4.56625 10.6706C4.22438 10.7612 3.85938 10.8137 3.48875 10.8137C3.22563 10.8137 2.97438 10.7881 2.72375 10.7418C3.25125 12.3693 4.76125 13.5543 6.56125 13.59C5.16187 14.6868 3.38812 15.3406 1.47687 15.3406C1.15125 15.3406 0.82625 15.325 0.5 15.2856C2.32313 16.4481 4.475 17.1281 6.79937 17.1281C14.3412 17.1281 18.4625 10.8812 18.4625 5.4712C18.4625 5.2987 18.4625 5.12308 18.4494 4.94683C19.2537 4.3737 19.95 3.64745 20.5 2.82433L20.4619 2.8087Z" fill="white"/>
</svg>
